<svg width="128" height="128" viewBox="0 0 128 128" fill="none" xmlns="http://www.w3.org/2000/svg">
<rect x="1.82097" y="1.82097" width="124.358" height="124.358" rx="25.8578" fill="url(#paint0_linear_9_5)" stroke="#002030" stroke-width="3.60807"/>
<rect x="16.7343" y="16.7343" width="94.5314" height="94.5314" rx="13.8309" fill="url(#paint1_linear_9_5)" stroke="#002030" stroke-width="3.60807"/>
<mask id="path-3-outside-1_9_5" maskUnits="userSpaceOnUse" x="15.4114" y="15.4114" width="98" height="99" fill="black">
<rect fill="white" x="15.4114" y="15.4114" width="98" height="99"/>
<path d="M15.4114 27.4383C15.4114 20.796 20.796 15.4114 27.4382 15.4114H99.5996C106.242 15.4114 111.626 20.796 111.626 27.4383V100.081C111.626 106.723 106.242 112.108 99.5996 112.108H27.4383C20.796 112.108 15.4114 106.723 15.4114 100.081V27.4383Z"/>
</mask>
<path d="M15.4114 15.4114H111.626H15.4114ZM113.31 100.081C113.31 107.653 107.172 113.791 99.5996 113.791H29.122C21.5498 113.791 15.4114 107.653 15.4114 100.081V100.081C15.4114 105.793 20.796 110.424 27.4382 110.424H99.5996C105.312 110.424 109.943 105.793 109.943 100.081L113.31 100.081ZM15.4114 112.108V15.4114V112.108ZM99.5996 15.4114C107.172 15.4114 113.31 21.5498 113.31 29.122V100.081C113.31 107.653 107.172 113.791 99.5996 113.791L99.5996 110.424C105.312 110.424 109.943 105.793 109.943 100.081V27.4383C109.943 20.796 105.312 15.4114 99.5996 15.4114H99.5996Z" fill="#FAF3E0" mask="url(#path-3-outside-1_9_5)"/>
<path d="M76.7014 74.676L75.4257 73.4004L74.1501 74.676L70.9415 77.8846L69.6658 79.1603L70.9415 80.4359L84.8945 94.3889C86.485 95.9795 89.0638 95.9795 90.6544 94.3889C92.2449 92.7984 92.2449 90.2196 90.6544 88.629L76.7014 74.676Z" fill="#F6E4D5" stroke="#D1BAB3" stroke-width="3.60807"/>
<path fill-rule="evenodd" clip-rule="evenodd" d="M79.2636 70.0267C80.89 66.5952 81.7998 62.7579 81.7998 58.7082C81.7998 44.0952 69.9536 32.249 55.3406 32.249C40.7277 32.249 28.8815 44.0952 28.8815 58.7082C28.8815 73.3212 40.7277 85.1673 55.3406 85.1673C59.1326 85.1673 62.7382 84.3697 65.9989 82.933L67.2216 84.1558L81.0295 97.9636C84.6429 101.577 90.5015 101.577 94.115 97.9636C97.7285 94.3502 97.7285 88.4916 94.115 84.8781L80.3071 71.0703L79.2636 70.0267ZM72.7015 78.6759C73.6296 77.8683 74.5008 76.9971 75.3083 76.0691L77.7558 73.6215L80.3071 76.1728L91.5637 87.4294C93.7681 89.6338 93.7681 93.2079 91.5637 95.4123C89.3593 97.6168 85.7852 97.6168 83.5808 95.4123L72.3242 84.1558L69.7729 81.6045L72.3242 79.0532L72.7015 78.6759ZM72.6648 73.61C76.1094 69.6091 78.1917 64.4018 78.1917 58.7082C78.1917 46.0879 67.961 35.8571 55.3406 35.8571C42.7203 35.8571 32.4896 46.0879 32.4896 58.7082C32.4896 71.3285 42.7203 81.5593 55.3406 81.5593C61.0343 81.5593 66.2416 79.477 70.2425 76.0323L72.6648 73.61Z" fill="#002030"/>
<line x1="59.568" y1="25.9318" x2="64.6193" y2="17.7535" stroke="#002030" stroke-width="0.240538"/>
<line x1="101.172" y1="99.5549" x2="105.501" y2="88.7307" stroke="#002030" stroke-width="0.240538"/>
<circle cx="55.3406" cy="58.7081" r="16.2363" fill="url(#paint2_linear_9_5)" stroke="#002030" stroke-width="3.60807"/>
<path d="M54.7415 44.2886C52.8478 44.3673 50.9882 44.8183 49.2689 45.6156C47.5495 46.413 46.004 47.5413 44.7207 48.9359C43.4373 50.3306 42.4413 51.9644 41.7893 53.744C41.1374 55.5236 40.8424 57.4142 40.9211 59.3078L43.8433 59.1864C43.7805 57.6765 44.0158 56.169 44.5356 54.75C45.0554 53.3311 45.8496 52.0284 46.8729 50.9164C47.8962 49.8043 49.1285 48.9047 50.4994 48.2689C51.8703 47.6331 53.3531 47.2736 54.863 47.2108L54.7415 44.2886Z" fill="#FAF6F5"/>
<circle cx="109.462" cy="78.9133" r="10.7039" stroke="#002030" stroke-width="3.60807"/>
<circle cx="109.462" cy="78.9134" r="7.09587" fill="#F3DECD" stroke="#D1BAB3" stroke-width="3.60807"/>
<circle cx="108.499" cy="57.2649" r="4.93103" stroke="#002030" stroke-width="3.60807"/>
<circle cx="91.9024" cy="56.0623" r="4.93103" fill="#D1BAB3" stroke="#002030" stroke-width="3.60807"/>
<circle cx="42.5921" cy="15.4114" r="4.93103" fill="#D1BAB3" stroke="#002030" stroke-width="3.60807"/>
<circle cx="44.5164" cy="106.335" r="4.93103" fill="#D1BAB3" stroke="#002030" stroke-width="3.60807"/>
<circle cx="62.7973" cy="110.424" r="5.89318" fill="#D1BAB3" stroke="#002030" stroke-width="3.60807"/>
<circle cx="65.804" cy="92.9848" r="3.60807" fill="#D1BAB3" stroke="#002030" stroke-width="3.60807"/>
<circle cx="51.6123" cy="93.2253" r="3.60807" fill="#D1BAB3" stroke="#002030" stroke-width="3.60807"/>
<circle cx="37.6611" cy="94.9091" r="3.60807" fill="#D1BAB3" stroke="#002030" stroke-width="3.60807"/>
<circle cx="24.9126" cy="80.7174" r="3.60807" fill="#D1BAB3" stroke="#002030" stroke-width="3.60807"/>
<circle cx="106.695" cy="33.572" r="6.73506" fill="#D1BAB3" stroke="#002030" stroke-width="3.60807"/>
<circle cx="87.9335" cy="23.2288" r="8.8999" fill="#D1BAB3" stroke="#002030" stroke-width="3.60807"/>
<circle cx="21.064" cy="53.0555" r="3.60807" fill="#D1BAB3" stroke="#002030" stroke-width="3.60807"/>
<circle cx="83.4836" cy="109.702" r="7.09587" fill="#D1BAB3" stroke="#002030" stroke-width="3.60807"/>
<circle cx="25.7545" cy="23.5897" r="8.05802" fill="#F6E2CB" stroke="#002030" stroke-width="3.60807"/>
<circle cx="56.3028" cy="29.6031" r="4.44995" fill="#D1BAB3" stroke="#002030" stroke-width="3.60807"/>
<circle cx="91.9024" cy="56.0623" r="1.20269" fill="#F3DECD"/>
<circle cx="4.08914" cy="4.08914" r="3.12699" transform="matrix(-1 0 0 1 112.589 53.1758)" fill="#F3DECD" stroke="#D1BAB3" stroke-width="1.9243"/>
<line x1="96.6582" y1="56.4327" x2="103.634" y2="57.1543" stroke="#002030" stroke-width="3.60807"/>
<line x1="96.6204" y1="27.0603" x2="101.431" y2="29.7062" stroke="#002030" stroke-width="3.60807"/>
<line x1="103.257" y1="39.5167" x2="94.5974" y2="52.2652" stroke="#002030" stroke-width="3.60807"/>
<line x1="88.1611" y1="31.0711" x2="90.5665" y2="51.0357" stroke="#002030" stroke-width="3.60807"/>
<line x1="81.6915" y1="29.8545" x2="72.0699" y2="40.4382" stroke="#002030" stroke-width="3.60807"/>
<line x1="94.0603" y1="59.3004" x2="103.201" y2="71.3273" stroke="#002030" stroke-width="3.60807"/>
<line x1="89.7306" y1="60.3357" x2="83.7172" y2="75.4896" stroke="#002030" stroke-width="3.60807"/>
<line x1="71.3767" y1="86.3489" x2="68.2498" y2="89.9569" stroke="#002030" stroke-width="3.60807"/>
<line x1="76.9161" y1="104.483" x2="68.4973" y2="96.0645" stroke="#002030" stroke-width="3.60807"/>
<line x1="41.7474" y1="103.141" x2="38.861" y2="98.0892" stroke="#002030" stroke-width="3.60807"/>
<line x1="36.243" y1="72.8807" x2="27.5837" y2="79.6157" stroke="#002030" stroke-width="3.60807"/>
<line x1="34.9553" y1="92.5799" x2="27.4986" y2="83.68" stroke="#002030" stroke-width="3.60807"/>
<line x1="26.6259" y1="97.4473" x2="39.1339" y2="77.2421" stroke="#002030" stroke-width="3.60807"/>
<line x1="23.7112" y1="96.6438" x2="24.1923" y2="84.1358" stroke="#002030" stroke-width="3.60807"/>
<line x1="23.9663" y1="77.468" x2="21.0798" y2="55.8196" stroke="#002030" stroke-width="3.60807"/>
<line x1="31.4553" y1="52.1468" x2="26.404" y2="30.739" stroke="#002030" stroke-width="3.60807"/>
<line x1="50.9205" y1="28.7306" x2="32.8801" y2="25.363" stroke="#002030" stroke-width="3.60807"/>
<line x1="78.5455" y1="26.3208" x2="60.5052" y2="29.9288" stroke="#002030" stroke-width="3.60807"/>
<line x1="53.6441" y1="26.6065" x2="45.4658" y2="19.1499" stroke="#002030" stroke-width="3.60807"/>
<line x1="47.8818" y1="93.2095" x2="40.6657" y2="94.1716" stroke="#002030" stroke-width="3.60807"/>
<line x1="62.0757" y1="93.2253" x2="54.3785" y2="93.2253" stroke="#002030" stroke-width="3.60807"/>
<line x1="86.37" y1="57.1446" x2="80.116" y2="57.1446" stroke="#002030" stroke-width="3.60807"/>
<line x1="98.3969" y1="79.7552" x2="86.37" y2="79.7552" stroke="#002030" stroke-width="3.60807"/>
<circle cx="25.0329" cy="104.41" r="7.81748" fill="url(#paint3_linear_9_5)" stroke="#002030" stroke-width="3.60807"/>
<circle cx="25.0329" cy="104.41" r="2.16484" fill="#002030"/>
<circle cx="106.816" cy="33.4517" r="1.20269" fill="#002030"/>
<circle cx="88.0538" cy="23.1086" r="3.84861" fill="#FCECD7"/>
<circle cx="68.2094" cy="22.7478" r="1.80403" fill="#002030"/>
<circle cx="102.125" cy="49.9286" r="1.32296" fill="#002030"/>
<circle cx="105.252" cy="44.8773" r="0.360807" fill="#002030"/>
<circle cx="20.1019" cy="65.804" r="0.601345" fill="#002030"/>
<path d="M31.2868 72.3888C31.2868 73.1194 30.6945 73.7117 29.9639 73.7117C29.2332 73.7117 28.6409 73.1194 28.6409 72.3888C28.6409 71.6581 29.2332 71.0658 29.9639 71.0658C30.6945 71.0658 31.2868 71.6581 31.2868 72.3888Z" fill="#002030"/>
<circle cx="24.7923" cy="42.111" r="1.68376" fill="#002030"/>
<circle cx="36.9395" cy="34.0531" r="1.32296" fill="#002030"/>
<circle cx="80.7174" cy="37.9017" r="1.32296" fill="#002030"/>
<circle cx="56.6636" cy="101.885" r="1.32296" fill="#002030"/>
<circle cx="40.5476" cy="86.2498" r="1.08242" fill="#002030"/>
<circle cx="27.1977" cy="89.7375" r="0.721614" fill="#002030"/>
<circle cx="92.624" cy="70.735" r="0.962151" fill="#002030"/>
<circle cx="101.043" cy="99.5996" r="2.40538" fill="#002030"/>
<line x1="101.159" y1="99.5674" x2="103.564" y2="108.227" stroke="#002030" stroke-width="0.240538"/>
<line x1="64.8414" y1="96.7244" x2="64.1198" y2="104.422" stroke="#002030" stroke-width="0.240538"/>
<line x1="66.0307" y1="96.6571" x2="73.2469" y2="110.368" stroke="#002030" stroke-width="0.240538"/>
<line x1="48.785" y1="103.585" x2="63.4578" y2="94.9258" stroke="#002030" stroke-width="0.240538"/>
<line x1="48.2365" y1="82.2369" x2="50.8824" y2="88.972" stroke="#002030" stroke-width="0.240538"/>
<line x1="55.9081" y1="82.4378" x2="63.6053" y2="90.3755" stroke="#002030" stroke-width="0.240538"/>
<line x1="24.911" y1="42.0916" x2="29.7218" y2="71.4372" stroke="#002030" stroke-width="0.240538"/>
<line x1="68.3218" y1="22.5074" x2="79.3866" y2="21.7858" stroke="#002030" stroke-width="0.240538"/>
<line x1="33.7585" y1="27.3379" x2="45.7854" y2="35.2756" stroke="#002030" stroke-width="0.240538"/>
<line x1="80.4638" y1="37.4864" x2="87.6799" y2="51.6781" stroke="#002030" stroke-width="0.240538"/>
<line x1="102.143" y1="49.7449" x2="105.27" y2="44.6936" stroke="#002030" stroke-width="0.240538"/>
<line x1="102.309" y1="50.6319" x2="96.5363" y2="54.24" stroke="#002030" stroke-width="0.240538"/>
<line x1="92.4463" y1="70.6326" x2="99.903" y2="75.2028" stroke="#002030" stroke-width="0.240538"/>
<line x1="16.6978" y1="34.087" x2="24.8761" y2="42.0248" stroke="#002030" stroke-width="0.240538"/>
<line x1="31.1166" y1="29.5055" x2="37.13" y2="33.8352" stroke="#002030" stroke-width="0.240538"/>
<line x1="37.1761" y1="33.9631" x2="34.2897" y2="45.0278" stroke="#002030" stroke-width="0.240538"/>
<line x1="32.1439" y1="104.111" x2="35.7519" y2="97.6169" stroke="#002030" stroke-width="0.240538"/>
<line x1="89.2044" y1="105.264" x2="101.231" y2="99.4912" stroke="#002030" stroke-width="0.240538"/>
<line x1="94.1265" y1="95.4059" x2="101.343" y2="99.495" stroke="#002030" stroke-width="0.240538"/>
<line x1="77.4086" y1="48.7427" x2="100.019" y2="35.2726" stroke="#002030" stroke-width="0.240538"/>
<circle cx="25.6342" cy="23.7099" r="2.76619" fill="#FEF3DD"/>
<circle cx="83.3633" cy="109.582" r="1.08242" fill="#002030"/>
<defs>
<linearGradient id="paint0_linear_9_5" x1="3.625" y1="3.625" x2="124.375" y2="124.375" gradientUnits="userSpaceOnUse">
<stop stop-color="#FEF5E0"/>
<stop offset="1" stop-color="#BFA7A3"/>
</linearGradient>
<linearGradient id="paint1_linear_9_5" x1="22.5072" y1="24.0707" x2="103.448" y2="106.695" gradientUnits="userSpaceOnUse">
<stop stop-color="#FEEFD8"/>
<stop offset="0.467871" stop-color="#E6CFC2"/>
<stop offset="0.530886" stop-color="#C6AAA7"/>
<stop offset="1" stop-color="#AA8A8F"/>
</linearGradient>
<linearGradient id="paint2_linear_9_5" x1="42.5921" y1="48.0042" x2="66.6459" y2="69.8932" gradientUnits="userSpaceOnUse">
<stop stop-color="#FEF1DC"/>
<stop offset="0.510317" stop-color="#F5E5D1"/>
<stop offset="0.510417" stop-color="#FEF0D9"/>
<stop offset="0.510517" stop-color="#E4CEC1"/>
<stop offset="0.666567" stop-color="#E4CDBF"/>
<stop offset="0.666667" stop-color="#E4CDC0"/>
<stop offset="0.666767" stop-color="#A9898E"/>
</linearGradient>
<linearGradient id="paint3_linear_9_5" x1="18.0573" y1="98.2766" x2="30.445" y2="110.664" gradientUnits="userSpaceOnUse">
<stop stop-color="#FBE7D3"/>
<stop offset="1" stop-color="#EBD7C5"/>
</linearGradient>
</defs>
</svg>
